# xmcd CD database file
#
# Track frame offsets:
#	150
#	18972
#	34950
#	56180
#	92362
#	115680
#	138282
#	155822
#	181472
#	195972
#	219212
#	239690
#	259052
#	270395
#
# Disc length: 3963 seconds
#
# Revision: 5
# Processed by: cddbd v1.5.2PL0 Copyright (c) Steve Scherf et al.
# Submitted via: CDex 1.51
#
DISCID=bc0f790e
DTITLE=Lars Lilholt - Kong Pukkelrygs Land
DYEAR=1993
DGENRE=Folk
TTITLE0=Men aldrig som før
TTITLE1=Har denne vej et hjerte
TTITLE2=Alting er forbundet
TTITLE3=Hvidsten kro
TTITLE4=Da kærligheden kom til byen
TTITLE5=Førend vinteren kommer
TTITLE6=Onkel Christian
TTITLE7=Og Gudenåen går mod Kattegat
TTITLE8=To skud i Stockholm
TTITLE9=Gir' du mig lov
TTITLE10=I et tarveligt teater
TTITLE11=Anno 5001
TTITLE12=Langå banegård
TTITLE13=Der er ingen vej tilbage
EXTD=YEAR: 1993
EXTT0=
EXTT1=
EXTT2=
EXTT3=
EXTT4=
EXTT5=
EXTT6=
EXTT7=
EXTT8=
EXTT9=
EXTT10=
EXTT11=
EXTT12=
EXTT13=
PLAYORDER=
